<svg xmlns="http://www.w3.org/2000/svg" width="16.665" height="20" viewBox="0 0 16.665 20"><defs><style>.a{fill:#0062ff;}</style></defs><g transform="translate(-2.001)"><g transform="translate(9.775 0)"><path class="a" d="M2,7.108c.183-.017.375-.025.558-.025.117,0,.225,0,.342.008A7.051,7.051,0,0,1,6.693,8.417L10.818.925A.648.648,0,0,0,10.81.308.629.629,0,0,0,10.268,0H6.518a.629.629,0,0,0-.542.308l-3.508,6Z" transform="translate(-2.001 0)"/></g><g transform="translate(2.001 0)"><path class="a" d="M13.034.925l4.125,7.492a6.827,6.827,0,0,1,1.933-.983l1.4-2.4L17.884.325A.641.641,0,0,0,17.334,0h-3.75a.629.629,0,0,0-.542.308.648.648,0,0,0-.008.617Z" transform="translate(-12.96 0)"/></g><g transform="translate(4.5 8.333)"><path class="a" d="M10.833,10A5.833,5.833,0,1,1,5,15.833,5.84,5.84,0,0,1,10.833,10ZM7.677,15.631l1.134,1.163-.269,1.648a.624.624,0,0,0,.919.647l1.372-.757,1.372.758a.625.625,0,0,0,.92-.647l-.269-1.648,1.134-1.163a.625.625,0,0,0-.353-1.054l-1.542-.236L11.4,12.86a.65.65,0,0,0-1.131,0l-.695,1.481-1.542.236a.625.625,0,0,0-.353,1.054Z" transform="translate(-5 -10)"/></g></g></svg>